<svg id="Capa_1" enable-background="new 0 0 512.002 512.002" height="512" viewBox="0 0 512.002 512.002" width="512" xmlns="http://www.w3.org/2000/svg"><g><path d="m422.714 405.714c-4.923 16.306-15.616 24.574-31.782 24.574-15.605 0-35.228-12.397-56.742-35.852-16.448-17.93-43.354-20.89-63.974-7.03-3.471 2.333-7.042 4.269-10.615 5.753-2.287.951-4.912.951-7.199 0-3.573-1.485-7.145-3.421-10.615-5.754-20.621-13.857-47.525-10.901-63.975 7.031-21.514 23.454-41.135 35.852-56.741 35.852-16.166 0-26.859-8.268-31.782-24.574-3.656-12.113-20.888-11.888-24.227.322-2.909 10.644-3.809 21.132-2.671 31.173 2.786 24.615 26.963 71.166 98.523 71.166 46.696 0 77.715-23.528 92.048-37.552 1.703-1.668 4.375-1.667 6.078 0 14.333 14.024 45.352 37.552 92.048 37.552 71.561 0 95.737-46.551 98.523-71.166 1.137-10.043.238-20.531-2.671-31.172-3.34-12.218-20.591-12.367-24.226-.323zm-153.184 54.386c-3.793-3.711-8.661-5.566-13.529-5.566s-9.736 1.855-13.529 5.566c-64.21 62.827-176.586 30.621-164.653-42.286 8.014 17.793 23.115 27.473 43.252 27.473 20.206 0 43.016-13.697 67.795-40.712 11.398-12.424 30.137-14.41 44.554-4.721 4.29 2.884 8.739 5.291 13.225 7.156 5.947 2.472 12.768 2.472 18.715 0 4.485-1.865 8.935-4.272 13.225-7.155 14.418-9.69 33.155-7.705 44.553 4.72 24.781 27.015 47.591 40.712 67.796 40.712 20.137 0 35.238-9.68 43.252-27.473 11.941 73.03-100.585 104.979-164.656 42.286z"/><path d="m484.322 258.735h-30.709c-6.391-33.997-15.251-75.54-24.227-111.691-.998-4.02-5.065-6.469-9.087-5.471-4.02.998-6.47 5.066-5.472 9.086 4.711 18.971 8.96 37.648 12.571 54.322h-342.777c10.712-49.41 27.085-116.644 44.514-157.726 3.214-7.577 9.955-13.273 18.031-15.239 18.512-4.505 57.254-12.229 108.835-13.386 51.581 1.157 90.323 8.881 108.835 13.387 8.076 1.965 14.817 7.662 18.031 15.238 7.246 17.079 14.929 40.161 22.837 68.605 1.108 3.991 5.244 6.326 9.234 5.217 3.991-1.109 6.326-5.244 5.217-9.235-8.081-29.068-15.98-52.77-23.479-70.446-5.057-11.919-15.634-20.875-28.293-23.955-19.123-4.653-59.131-12.636-112.216-13.811-.111-.003-.221-.003-.332 0-53.085 1.175-93.093 9.158-112.216 13.812-12.659 3.081-23.236 12.036-28.293 23.955-27.465 64.74-51.467 188.051-56.943 217.338h-30.703c-15.263 0-27.68 12.417-27.68 27.68v6.918c0 15.263 12.417 27.68 27.68 27.68h210.821c4.143 0 7.5-3.358 7.5-7.5s-3.357-7.5-7.5-7.5h-210.821c-6.991 0-12.68-5.688-12.68-12.68v-6.918c0-6.992 5.688-12.68 12.68-12.68h456.643c6.991 0 12.68 5.688 12.68 12.68v6.918c0 6.992-5.688 12.68-12.68 12.68h-210.822c-4.143 0-7.5 3.358-7.5 7.5s3.357 7.5 7.5 7.5h210.821c15.263 0 27.68-12.417 27.68-27.68v-6.918c0-15.263-12.417-27.68-27.68-27.68zm-410.664 0c1.583-8.319 4.25-21.989 7.764-38.754h349.169c3.506 16.747 6.173 30.432 7.754 38.754z"/></g></svg>