<?xml version="1.0" encoding="iso-8859-1"?>
<!-- Generator: Adobe Illustrator 19.0.0, SVG Export Plug-In . SVG Version: 6.00 Build 0)  -->
<svg version="1.1" id="Capa_1" xmlns="http://www.w3.org/2000/svg" xmlns:xlink="http://www.w3.org/1999/xlink" x="0px" y="0px"
	 viewBox="0 0 512.001 512.001" style="enable-background:new 0 0 512.001 512.001;" xml:space="preserve">
<g>
	<g>
		<path d="M415.947,428.604l-99.451-46.801c-2.976-1.4-4.899-4.431-4.899-7.72v-38.556c5.339-3.398,10.398-7.302,15.105-11.691
			c19.155-17.861,30.769-42.035,32.703-68.068c0.307-4.13-2.793-7.728-6.924-8.035c-4.129-0.301-7.728,2.793-8.035,6.924
			c-1.653,22.257-11.588,42.929-27.974,58.208c-16.467,15.355-37.943,23.812-60.472,23.812c-48.906,0-88.693-39.788-88.693-88.694
			v-32.064c0-19.387,19.305-32.912,39.744-47.231c12.62-8.842,25.573-17.93,34.123-28.968
			c16.406,18.647,38.611,30.723,60.286,42.506c36.632,19.915,68.269,37.114,69.288,81.96c0.093,4.083,3.432,7.33,7.495,7.33
			c0.058,0,0.116,0,0.174-0.002c4.141-0.094,7.422-3.527,7.328-7.668c-0.204-8.96-1.475-16.99-3.591-24.275
			c6.368-16.45,9.606-33.835,9.606-51.708c0-53.426-29.273-99.939-72.169-123.453c0.003-0.266,0.023-0.533,0.023-0.797
			C319.613,28.537,291.076,0,256,0s-63.613,28.537-63.613,63.613c0,0.265,0.018,0.532,0.021,0.798
			c-42.895,23.514-72.167,70.026-72.167,123.452c0,37.182,13.993,72.101,39.413,98.457c8.121,20.337,22.501,37.521,40.749,49.157
			v38.607c0,3.289-1.923,6.319-4.899,7.72l-99.451,46.801c-19.394,9.126-31.924,28.872-31.924,50.305v25.59
			c0,4.142,3.358,7.5,7.5,7.5c4.142,0,7.5-3.358,7.5-7.5v-25.59c0-15.65,9.15-30.069,23.311-36.733l53.034-24.958
			c6.482,10.007,14.381,18.974,23.548,26.676c1.406,1.181,3.118,1.758,4.821,1.758c2.139,0,4.263-0.91,5.746-2.675
			c2.665-3.171,2.254-7.902-0.917-10.567c-7.5-6.302-14.026-13.574-19.48-21.647l32.699-15.388
			c8.208-3.862,13.513-12.22,13.513-21.292v-30.688c12.475,5.328,26.197,8.282,40.597,8.282c14.124,0,27.893-2.847,40.597-8.252
			v30.659c0,9.072,5.304,17.43,13.513,21.292l32.71,15.393c-19.376,28.624-52.051,46.15-86.819,46.15
			c-15.708,0-30.807-3.39-44.879-10.075c-3.744-1.778-8.215-0.185-9.993,3.557c-1.778,3.742-0.185,8.215,3.556,9.992
			c16.099,7.648,33.364,11.526,51.315,11.526c40.528,0,78.558-20.835,100.525-54.7l53.035,24.958
			c14.161,6.664,23.311,21.083,23.311,36.733v25.59c0,4.142,3.358,7.5,7.5,7.5c4.142,0,7.5-3.358,7.5-7.5v-25.59
			C447.871,457.477,435.34,437.73,415.947,428.604z M256,15c24.629,0,45.025,18.416,48.176,42.198
			c-14.98-5.874-31.218-9.101-48.176-9.101s-33.196,3.228-48.176,9.101C210.975,33.416,231.371,15,256,15z M152.394,252.057
			c-11.182-19.182-17.152-41.2-17.152-64.194c0-68.796,54.172-124.766,120.758-124.766s120.758,55.97,120.758,124.766
			c0,10.649-1.285,21.101-3.817,31.238c-14.643-23.041-39.753-36.698-64.317-50.052c-27.864-15.148-56.676-30.812-69.819-60.385
			c-1.682-3.786-6.115-5.489-9.899-3.807c-3.785,1.682-5.49,6.114-3.808,9.899c1.953,4.396,4.173,8.5,6.614,12.36
			c-6.551,10.554-19.551,19.677-33.268,29.288c-21.626,15.15-46.137,32.323-46.137,59.516v32.064
			C152.307,249.349,152.342,250.705,152.394,252.057z"/>
	</g>
</g>
<g>
	<g>
		<path d="M286.862,273.089c-2.826-3.025-7.572-3.185-10.599-0.357c-2.958,2.766-10.041,5.995-20.263,5.995
			c-10.222,0-17.304-3.229-20.263-5.995c-3.026-2.828-7.772-2.669-10.601,0.357c-2.829,3.026-2.668,7.772,0.357,10.601
			c6.724,6.285,18.128,10.037,30.506,10.037c12.378,0,23.782-3.752,30.506-10.037C289.531,280.862,289.691,276.116,286.862,273.089z
			"/>
	</g>
</g>
<g>
	<g>
		<path d="M212.245,212.427c-4.142,0-7.5,3.358-7.5,7.5v8.016c0,4.142,3.358,7.5,7.5,7.5c4.142,0,7.5-3.358,7.5-7.5v-8.016
			C219.745,215.785,216.387,212.427,212.245,212.427z"/>
	</g>
</g>
<g>
	<g>
		<path d="M299.754,212.427c-4.142,0-7.5,3.358-7.5,7.5v8.016c0,4.142,3.358,7.5,7.5,7.5c4.142,0,7.5-3.358,7.5-7.5v-8.016
			C307.254,215.785,303.896,212.427,299.754,212.427z"/>
	</g>
</g>
<g>
</g>
<g>
</g>
<g>
</g>
<g>
</g>
<g>
</g>
<g>
</g>
<g>
</g>
<g>
</g>
<g>
</g>
<g>
</g>
<g>
</g>
<g>
</g>
<g>
</g>
<g>
</g>
<g>
</g>
</svg>
